<svg width="512" height="512" viewBox="0 0 80 80" xmlns="http://www.w3.org/2000/svg">
      <defs>
        <linearGradient id="logoGradient" x1="0" y1="0" x2="80" y2="80" gradientUnits="userSpaceOnUse">
          <stop offset="0%" stop-color="#3b82f6"/>
          <stop offset="100%" stop-color="#06b6d4"/>
        </linearGradient>
        <filter id="glow" x="-50%" y="-50%" width="200%" height="200%">
          <feGaussianBlur stdDeviation="2" result="coloredBlur"/>
          <feMerge>
            <feMergeNode in="coloredBlur"/>
            <feMergeNode in="SourceGraphic"/>
          </feMerge>
        </filter>
      </defs>
      <circle cx="40" cy="40" r="38" fill="url(#logoGradient)" filter="url(#glow)"/>
      <line x1="40" y1="20" x2="40" y2="60" stroke="rgba(255, 255, 255, 0.3)" stroke-width="1"/>
      <g transform="translate(20, 30)">
        <circle cx="0" cy="0" r="4" fill="white"/>
        <path d="M -5 10 Q -5 5, 0 5 Q 5 5, 5 10 L 5 15 Q 5 17, 3 17 L -3 17 Q -5 17, -5 15 Z" fill="white"/>
      </g>
      <g transform="translate(60, 32)">
        <path d="M 0 5 C 0 5, -2 0, -5 0 C -8 0, -9 2, -9 4 C -9 7, -7 9, 0 14 C 7 9, 9 7, 9 4 C 9 2, 8 0, 5 0 C 2 0, 0 5, 0 5 Z" fill="white"/>
      </g>
      <circle cx="40" cy="40" r="38" fill="none" stroke="rgba(255, 255, 255, 0.2)" stroke-width="1"/>
    </svg>