<svg width="512" height="512" viewBox="0 0 512 512" fill="none" xmlns="http://www.w3.org/2000/svg">
    <defs>
        <linearGradient id="logoGradient" x1="0" y1="0" x2="512" y2="512"
            gradientUnits="userSpaceOnUse">
            <stop offset="0%" stop-color="#3b82f6" />
            <stop offset="100%" stop-color="#06b6d4" />
        </linearGradient>
    </defs>

    <!-- Main Circle Background -->
    <circle cx="256" cy="256" r="240" fill="url(#logoGradient)" />

    <!-- Vertical Divider -->
    <line x1="256" y1="128" x2="256" y2="384" stroke="rgba(255, 255, 255, 0.3)" stroke-width="4" />

    <!-- Left Side - User Icon (Patience) -->
    <g transform="translate(128, 192)">
        <!-- Head -->
        <circle cx="0" cy="0" r="24" fill="white" />
        <!-- Body -->
        <path
            d="M -32 64 Q -32 32, 0 32 Q 32 32, 32 64 L 32 96 Q 32 110, 20 110 L -20 110 Q -32 110, -32 96 Z"
            fill="white" />
    </g>

    <!-- Right Side - Heart Icon (Her Promise) -->
    <g transform="translate(384, 205)">
        <path
            d="M 0 32 C 0 32, -12 0, -32 0 C -52 0, -58 12, -58 26 C -58 45, -45 58, 0 90 C 45 58, 58 45, 58 26 C 58 12, 52 0, 32 0 C 12 0, 0 32, 0 32 Z"
            fill="white" />
    </g>

    <!-- Outer Ring for polish -->
    <circle cx="256" cy="256" r="240" fill="none" stroke="rgba(255, 255, 255, 0.2)" stroke-width="4" />
</svg>